<svg width="1175" height="1238" xmlns="http://www.w3.org/2000/svg" xmlns:xlink="http://www.w3.org/1999/xlink" xml:space="preserve" overflow="hidden"><defs><clipPath id="clip0"><rect x="70" y="41" width="1175" height="1238"/></clipPath></defs><g clip-path="url(#clip0)" transform="translate(-70 -41)"><path d="M522 175.5C522 101.218 582.442 40.9999 657 40.9999 731.558 40.9999 792 101.218 792 175.5 792 249.782 731.558 310 657 310 582.442 310 522 249.782 522 175.5Z" fill="#CC66FF" fill-rule="evenodd"/><path d="M484 175.5C484 164.731 492.73 156 503.5 156L810.501 156C821.27 156 830.001 164.731 830.001 175.5L830 175.5C830 186.27 821.27 195 810.5 195L503.5 195C492.73 195 484 186.269 484 175.5Z" fill="#CC66FF" fill-rule="evenodd"/><rect x="561" y="156" width="192" height="767" fill="#CC66FF"/><path d="M736.701 310.51C896.309 311.957 1024.71 467.588 1023.5 658.121 1022.9 752.238 990.118 841.977 932.748 906.538" stroke="#CC66FF" stroke-width="55" stroke-linejoin="round" stroke-miterlimit="10" fill="none" fill-rule="evenodd"/><path d="M732.885 278.54C951.97 239.167 1164.99 367.289 1208.69 564.709 1239.86 705.534 1176.36 849.726 1046.53 932.983" stroke="#CC66FF" stroke-width="55" stroke-linejoin="round" stroke-miterlimit="10" fill="none" fill-rule="evenodd"/><path d="M291.201 0.00980971C450.809 1.45746 579.214 157.088 578.001 347.621 577.402 441.738 544.618 531.477 487.248 596.038" stroke="#CC66FF" stroke-width="55" stroke-linejoin="round" stroke-miterlimit="10" fill="none" fill-rule="evenodd" transform="matrix(-1 0 0 1 869.5 310.5)"/><path d="M325.881 7.02284C545.247-32.3036 758.501 95.8639 802.197 293.293 833.376 434.17 769.717 578.391 639.622 661.606" stroke="#CC66FF" stroke-width="55" stroke-linejoin="round" stroke-miterlimit="10" fill="none" fill-rule="evenodd" transform="matrix(-1 0 0 1 908.5 271.5)"/><rect x="214" y="885" width="886" height="153" fill="#8000FF"/><path d="M280 942.5C280 910.744 305.968 885 338 885 370.033 885 396 910.744 396 942.5 396 974.256 370.033 1000 338 1000 305.968 1000 280 974.256 280 942.5Z" fill="#FFFFFF" fill-rule="evenodd"/><path d="M408 942.5C408 910.744 433.967 885 466 885 498.032 885 524 910.744 524 942.5 524 974.256 498.032 1000 466 1000 433.967 1000 408 974.256 408 942.5Z" fill="#FFFFFF" fill-rule="evenodd"/><path d="M536 942.5C536 910.744 561.744 885 593.5 885 625.256 885 651 910.744 651 942.5 651 974.256 625.256 1000 593.5 1000 561.744 1000 536 974.256 536 942.5Z" fill="#FFFFFF" fill-rule="evenodd"/><path d="M663 942.5C663 910.744 688.968 885 721 885 753.033 885 779 910.744 779 942.5 779 974.256 753.033 1000 721 1000 688.968 1000 663 974.256 663 942.5Z" fill="#FFFFFF" fill-rule="evenodd"/><path d="M791 942.5C791 910.744 816.744 885 848.5 885 880.256 885 906 910.744 906 942.5 906 974.256 880.256 1000 848.5 1000 816.744 1000 791 974.256 791 942.5Z" fill="#FFFFFF" fill-rule="evenodd"/><path d="M918 942.5C918 910.744 943.968 885 976 885 1008.03 885 1034 910.744 1034 942.5 1034 974.256 1008.03 1000 976 1000 943.968 1000 918 974.256 918 942.5Z" fill="#FFFFFF" fill-rule="evenodd"/><rect x="214" y="1064" width="886" height="191" fill="#CC66FF"/><path d="M197 1148.5C197 1116.74 222.967 1091 255 1091 287.033 1091 313 1116.74 313 1148.5 313 1180.26 287.033 1206 255 1206 222.967 1206 197 1180.26 197 1148.5Z" fill="#FFFFFF" fill-rule="evenodd"/><path d="M399 1148.5C399 1116.74 424.968 1091 457 1091 489.032 1091 515 1116.74 515 1148.5 515 1180.26 489.032 1206 457 1206 424.968 1206 399 1180.26 399 1148.5Z" fill="#FFFFFF" fill-rule="evenodd"/><path d="M601 1148.5C601 1116.74 626.967 1091 659 1091 691.033 1091 717 1116.74 717 1148.5 717 1180.26 691.033 1206 659 1206 626.967 1206 601 1180.26 601 1148.5Z" fill="#FFFFFF" fill-rule="evenodd"/><path d="M804 1148.5C804 1116.74 829.744 1091 861.5 1091 893.256 1091 919 1116.74 919 1148.5 919 1180.26 893.256 1206 861.5 1206 829.744 1206 804 1180.26 804 1148.5Z" fill="#FFFFFF" fill-rule="evenodd"/><path d="M1006 1148.5C1006 1116.74 1031.97 1091 1064 1091 1096.03 1091 1122 1116.74 1122 1148.5 1122 1180.26 1096.03 1206 1064 1206 1031.97 1206 1006 1180.26 1006 1148.5Z" fill="#FFFFFF" fill-rule="evenodd"/><path d="M214 1260C214 1249.51 222.731 1241 233.5 1241 244.27 1241 253 1249.51 253 1260 253 1270.49 244.27 1279 233.5 1279 222.731 1279 214 1270.49 214 1260Z" fill="#8000FF" fill-rule="evenodd"/><path d="M279 1260C279 1249.51 287.731 1241 298.5 1241 309.27 1241 318 1249.51 318 1260 318 1270.49 309.27 1279 298.5 1279 287.731 1279 279 1270.49 279 1260Z" fill="#8000FF" fill-rule="evenodd"/><path d="M344 1260C344 1249.51 352.73 1241 363.5 1241 374.27 1241 383 1249.51 383 1260 383 1270.49 374.27 1279 363.5 1279 352.73 1279 344 1270.49 344 1260Z" fill="#8000FF" fill-rule="evenodd"/><path d="M410 1260C410 1249.51 418.507 1241 429 1241 439.493 1241 448 1249.51 448 1260 448 1270.49 439.493 1279 429 1279 418.507 1279 410 1270.49 410 1260Z" fill="#8000FF" fill-rule="evenodd"/><path d="M475 1260C475 1249.51 483.507 1241 494 1241 504.493 1241 513 1249.51 513 1260 513 1270.49 504.493 1279 494 1279 483.507 1279 475 1270.49 475 1260Z" fill="#8000FF" fill-rule="evenodd"/><path d="M540 1260C540 1249.51 548.73 1241 559.5 1241 570.269 1241 579 1249.51 579 1260 579 1270.49 570.269 1279 559.5 1279 548.73 1279 540 1270.49 540 1260Z" fill="#8000FF" fill-rule="evenodd"/><path d="M605 1260C605 1249.51 613.73 1241 624.5 1241 635.269 1241 644 1249.51 644 1260 644 1270.49 635.269 1279 624.5 1279 613.73 1279 605 1270.49 605 1260Z" fill="#8000FF" fill-rule="evenodd"/><path d="M670 1260C670 1249.51 678.73 1241 689.5 1241 700.27 1241 709 1249.51 709 1260 709 1270.49 700.27 1279 689.5 1279 678.73 1279 670 1270.49 670 1260Z" fill="#8000FF" fill-rule="evenodd"/><path d="M736 1260C736 1249.51 744.507 1241 755 1241 765.493 1241 774 1249.51 774 1260 774 1270.49 765.493 1279 755 1279 744.507 1279 736 1270.49 736 1260Z" fill="#8000FF" fill-rule="evenodd"/><path d="M801 1260C801 1249.51 809.507 1241 820 1241 830.493 1241 839 1249.51 839 1260 839 1270.49 830.493 1279 820 1279 809.507 1279 801 1270.49 801 1260Z" fill="#8000FF" fill-rule="evenodd"/><path d="M866 1260C866 1249.51 874.73 1241 885.5 1241 896.27 1241 905 1249.51 905 1260 905 1270.49 896.27 1279 885.5 1279 874.73 1279 866 1270.49 866 1260Z" fill="#8000FF" fill-rule="evenodd"/><path d="M931 1260C931 1249.51 939.73 1241 950.5 1241 961.27 1241 970 1249.51 970 1260 970 1270.49 961.27 1279 950.5 1279 939.73 1279 931 1270.49 931 1260Z" fill="#8000FF" fill-rule="evenodd"/><path d="M996 1260C996 1249.51 1004.73 1241 1015.5 1241 1026.27 1241 1035 1249.51 1035 1260 1035 1270.49 1026.27 1279 1015.5 1279 1004.73 1279 996 1270.49 996 1260Z" fill="#8000FF" fill-rule="evenodd"/><path d="M1062 1260C1062 1249.51 1070.51 1241 1081 1241 1091.49 1241 1100 1249.51 1100 1260 1100 1270.49 1091.49 1279 1081 1279 1070.51 1279 1062 1270.49 1062 1260Z" fill="#8000FF" fill-rule="evenodd"/><path d="M335 908.5C335 887.237 352.237 870 373.5 870 394.763 870 412 887.237 412 908.5 412 929.763 394.763 947 373.5 947 352.237 947 335 929.763 335 908.5Z" fill="#CC66FF" fill-rule="evenodd"/><path d="M398 908.5C398 887.237 415.237 870 436.5 870 457.763 870 475 887.237 475 908.5 475 929.763 457.763 947 436.5 947 415.237 947 398 929.763 398 908.5Z" fill="#CC66FF" fill-rule="evenodd"/><path d="M461 908.5C461 887.237 478.237 870 499.5 870 520.763 870 538 887.237 538 908.5 538 929.763 520.763 947 499.5 947 478.237 947 461 929.763 461 908.5Z" fill="#CC66FF" fill-rule="evenodd"/><path d="M524 908.5C524 887.237 541.237 870 562.5 870 583.763 870 601 887.237 601 908.5 601 929.763 583.763 947 562.5 947 541.237 947 524 929.763 524 908.5Z" fill="#CC66FF" fill-rule="evenodd"/><path d="M587 908.5C587 887.237 604.237 870 625.5 870 646.763 870 664 887.237 664 908.5 664 929.763 646.763 947 625.5 947 604.237 947 587 929.763 587 908.5Z" fill="#CC66FF" fill-rule="evenodd"/><path d="M650 908.5C650 887.237 667.237 870 688.5 870 709.763 870 727 887.237 727 908.5 727 929.763 709.763 947 688.5 947 667.237 947 650 929.763 650 908.5Z" fill="#CC66FF" fill-rule="evenodd"/><path d="M713 908.5C713 887.237 730.237 870 751.5 870 772.763 870 790 887.237 790 908.5 790 929.763 772.763 947 751.5 947 730.237 947 713 929.763 713 908.5Z" fill="#CC66FF" fill-rule="evenodd"/><path d="M776 908.5C776 887.237 793.237 870 814.5 870 835.763 870 853 887.237 853 908.5 853 929.763 835.763 947 814.5 947 793.237 947 776 929.763 776 908.5Z" fill="#CC66FF" fill-rule="evenodd"/><path d="M839 908.5C839 887.237 856.237 870 877.5 870 898.763 870 916 887.237 916 908.5 916 929.763 898.763 947 877.5 947 856.237 947 839 929.763 839 908.5Z" fill="#CC66FF" fill-rule="evenodd"/><path d="M902 908.5C902 887.237 919.237 870 940.5 870 961.763 870 979 887.237 979 908.5 979 929.763 961.763 947 940.5 947 919.237 947 902 929.763 902 908.5Z" fill="#CC66FF" fill-rule="evenodd"/><path d="M965 908.5C965 887.237 982.237 870 1003.5 870 1024.76 870 1042 887.237 1042 908.5 1042 929.763 1024.76 947 1003.5 947 982.237 947 965 929.763 965 908.5Z" fill="#CC66FF" fill-rule="evenodd"/><path d="M272 908.5C272 887.237 289.237 870 310.5 870 331.763 870 349 887.237 349 908.5 349 929.763 331.763 947 310.5 947 289.237 947 272 929.763 272 908.5Z" fill="#CC66FF" fill-rule="evenodd"/><path d="M594 660 621 606 693 606 720 660 693 714 621 714Z" fill="#FF0000" fill-rule="evenodd"/></g></svg>